<?xml version="1.0" standalone="no"?>
<!DOCTYPE svg PUBLIC "-//W3C//DTD SVG 20010904//EN"
 "http://www.w3.org/TR/2001/REC-SVG-20010904/DTD/svg10.dtd">
<svg version="1.0" xmlns="http://www.w3.org/2000/svg"
 width="305.000000pt" height="221.000000pt" viewBox="0 0 305.000000 221.000000"
 preserveAspectRatio="xMidYMid meet">

<g transform="translate(0.000000,221.000000) scale(0.100000,-0.100000)"
fill="#000000" stroke="none">
<path d="M557 1806 c-102 -42 -158 -99 -192 -195 -13 -37 -15 -121 -15 -563
l0 -519 88 3 87 3 5 515 c4 393 8 520 18 537 17 30 83 63 125 63 50 0 81 -30
162 -154 40 -61 126 -194 193 -294 l121 -184 46 92 46 92 -62 96 c-176 273
-281 422 -324 459 -84 75 -192 92 -298 49z"/>
<path d="M1875 1816 c-69 -22 -118 -53 -167 -103 -39 -40 -94 -140 -327 -598
-154 -302 -283 -558 -286 -568 -7 -15 2 -17 89 -17 88 0 97 2 110 23 8 12 127
245 266 517 138 272 262 506 273 518 12 13 39 33 59 43 34 17 62 19 318 19
312 0 323 -2 377 -63 38 -43 47 -85 40 -172 -9 -122 -95 -254 -208 -322 -92
-55 -145 -63 -411 -63 l-238 0 -120 -240 c-66 -132 -120 -245 -120 -250 0 -7
33 -10 92 -8 l92 3 87 155 86 155 209 6 c227 7 269 14 384 70 94 46 215 170
263 269 52 107 70 186 65 290 -3 69 -10 98 -32 143 -35 73 -101 138 -174 174
l-57 28 -315 2 c-235 2 -325 -1 -355 -11z"/>
</g>
</svg>
